{
  "accessors": [
    {
      "bufferView": 1,
      "componentType": 5126,
      "count": 128,
      "max": [
        10.959620475769043,
        2.0260400772094727,
        8.0608797073364258
      ],
      "min": [
        -10.959620475769043,
        -0.16245999932289124,
        -8.0329704284667969
      ],
      "type": "VEC3"
    },
    {
      "bufferView": 1,
      "byteOffset": 1536,
      "componentType": 5126,
      "count": 128,
      "max": [
        0.72000908851623535,
        0.71235132217407227,
        0.71379142999649048
      ],
      "min": [
        -0.72000908851623535,
        -0.73691254854202271,
        -0.71379142999649048
      ],
      "type": "VEC3"
    },
    {
      "bufferView": 0,
      "componentType": 5125,
      "count": 744,
      "max": [
        127
      ],
      "min": [
        0
      ],
      "type": "SCALAR"
    },
    {
      "bufferView": 1,
      "byteOffset": 3072,
      "componentType": 5126,
      "count": 6124,
      "max": [
        11.210470199584961,
        0,
        8.2204704284667969
      ],
      "min": [
        -11.210470199584961,
        -0.32076001167297363,
        -8.2204704284667969
      ],
      "type": "VEC3"
    },
    {
      "bufferView": 1,
      "byteOffset": 76560,
      "componentType": 5126,
      "count": 6124,
      "max": [
        1,
        1,
        1
      ],
      "min": [
        -1,
        -1,
        -1
      ],
      "type": "VEC3"
    },
    {
      "bufferView": 0,
      "byteOffset": 2976,
      "componentType": 5125,
      "count": 19488,
      "max": [
        6123
      ],
      "min": [
        0
      ],
      "type": "SCALAR"
    }
  ],
  "asset": {
    "extras": {
      "author": "Purely Upset (https://sketchfab.com/purelyupset)",
      "license": "CC-BY-4.0 (http://creativecommons.org/licenses/by/4.0/)",
      "source": "https://sketchfab.com/models/5f443280cbb640a4855a0f3f2bd9296f",
      "title": "Open Book"
    },
    "generator": "Sketchfab-3.18.7",
    "version": "2.0"
  },
  "bufferViews": [
    {
      "buffer": 0,
      "byteLength": 80928,
      "byteOffset": 0,
      "name": "floatBufferViews",
      "target": 34963
    },
    {
      "buffer": 0,
      "byteLength": 150048,
      "byteOffset": 80928,
      "byteStride": 12,
      "name": "floatBufferViews",
      "target": 34962
    }
  ],
  "buffers": [
    {
      "byteLength": 230976,
      "uri": "scene.bin"
    }
  ],
  "extensionsRequired": [
    "KHR_materials_pbrSpecularGlossiness"
  ],
  "extensionsUsed": [
    "KHR_materials_pbrSpecularGlossiness"
  ],
  "materials": [
    {
      "doubleSided": true,
      "emissiveFactor": [
        0,
        0,
        0
      ],
      "extensions": {
        "KHR_materials_pbrSpecularGlossiness": {
          "diffuseFactor": [
            1,
            0.95295681980000002,
            0.73253298550000001,
            1
          ],
          "glossinessFactor": 0,
          "specularFactor": [
            0,
            0,
            0
          ]
        }
      },
      "name": "Peeji"
    },
    {
      "doubleSided": true,
      "emissiveFactor": [
        0,
        0,
        0
      ],
      "extensions": {
        "KHR_materials_pbrSpecularGlossiness": {
          "diffuseFactor": [
            0.4219779078,
            0.093295161299999999,
            0.0739895733,
            1
          ],
          "glossinessFactor": 0.40000000000000002,
          "specularFactor": [
            0,
            0,
            0
          ]
        }
      },
      "name": "Material"
    }
  ],
  "meshes": [
    {
      "name": "Plane.001_0",
      "primitives": [
        {
          "attributes": {
            "NORMAL": 1,
            "POSITION": 0
          },
          "indices": 2,
          "material": 0,
          "mode": 4
        }
      ]
    },
    {
      "name": "Plane.001_1",
      "primitives": [
        {
          "attributes": {
            "NORMAL": 4,
            "POSITION": 3
          },
          "indices": 5,
          "material": 1,
          "mode": 4
        }
      ]
    }
  ],
  "nodes": [
    {
      "children": [
        1
      ],
      "name": "RootNode (gltf orientation matrix)",
      "rotation": [
        -0.70710678118654746,
        -0,
        -0,
        0.70710678118654757
      ]
    },
    {
      "children": [
        2
      ],
      "name": "RootNode (model correction matrix)"
    },
    {
      "children": [
        3,
        5
      ],
      "name": "Root"
    },
    {
      "children": [
        4
      ],
      "matrix": [
        -0.29086000000000006,
        0.95517000000000007,
        -0.05519000000000001,
        0,
        -0.77110000000000001,
        -0.19988000000000003,
        0.60452000000000006,
        0,
        0.56639000000000006,
        0.21839000000000003,
        0.7946700000000001,
        0,
        4.0762500000000008,
        1.00545,
        5.9038600000000008,
        1
      ],
      "name": "Lamp"
    },
    {
      "name": "Lamp"
    },
    {
      "children": [
        6,
        7
      ],
      "matrix": [
        0.12165000000000001,
        0,
        0,
        0,
        0,
        0,
        0.12165000000000001,
        0,
        0,
        -0.12165000000000001,
        0,
        0,
        0,
        0,
        0,
        1
      ],
      "name": "Plane.001"
    },
    {
      "mesh": 0,
      "name": "Plane.001_0"
    },
    {
      "mesh": 1,
      "name": "Plane.001_1"
    }
  ],
  "scene": 0,
  "scenes": [
    {
      "name": "OSG_Scene",
      "nodes": [
        0
      ]
    }
  ]
}

