{
  "accessors": [
    {
      "bufferView": 1,
      "componentType": 5126,
      "count": 9032,
      "max": [
        1,
        1,
        0
      ],
      "min": [
        -1.0002100467681885,
        -1,
        -0.045159999281167984
      ],
      "type": "VEC3"
    },
    {
      "bufferView": 1,
      "byteOffset": 108384,
      "componentType": 5126,
      "count": 9032,
      "max": [
        1,
        1,
        1
      ],
      "min": [
        -1,
        -1,
        -1
      ],
      "type": "VEC3"
    },
    {
      "bufferView": 0,
      "componentType": 5125,
      "count": 19488,
      "max": [
        9031
      ],
      "min": [
        0
      ],
      "type": "SCALAR"
    },
    {
      "bufferView": 1,
      "byteOffset": 216768,
      "componentType": 5126,
      "count": 138,
      "max": [
        0.27145999670028687,
        12.497010231018066,
        10.155559539794922
      ],
      "min": [
        -1.3218899965286255,
        -12.56011962890625,
        -10.224269866943359
      ],
      "type": "VEC3"
    },
    {
      "bufferView": 1,
      "byteOffset": 218424,
      "componentType": 5126,
      "count": 138,
      "max": [
        0.74125564098358154,
        0.71671199798583984,
        0.71271902322769165
      ],
      "min": [
        -0.72615772485733032,
        -0.72037357091903687,
        -0.71141344308853149
      ],
      "type": "VEC3"
    },
    {
      "bufferView": 0,
      "byteOffset": 77952,
      "componentType": 5125,
      "count": 792,
      "max": [
        137
      ],
      "min": [
        0
      ],
      "type": "SCALAR"
    },
    {
      "bufferView": 1,
      "byteOffset": 220080,
      "componentType": 5126,
      "count": 2211,
      "max": [
        4.9650001525878906,
        0.68199998140335083,
        0
      ],
      "min": [
        0.039999999105930328,
        -4.0089998245239258,
        0
      ],
      "type": "VEC3"
    },
    {
      "bufferView": 1,
      "byteOffset": 246612,
      "componentType": 5126,
      "count": 2211,
      "max": [
        0,
        0,
        1
      ],
      "min": [
        0,
        0,
        0.99999994039535522
      ],
      "type": "VEC3"
    },
    {
      "bufferView": 0,
      "byteOffset": 81120,
      "componentType": 5125,
      "count": 6495,
      "max": [
        2210
      ],
      "min": [
        0
      ],
      "type": "SCALAR"
    }
  ],
  "asset": {
    "extras": {
      "author": "Xierra (https://sketchfab.com/Xierra)",
      "license": "CC-BY-4.0 (http://creativecommons.org/licenses/by/4.0/)",
      "source": "https://sketchfab.com/models/ecf0b80c57e34a0ab4df7affa8353466",
      "title": "Open Book"
    },
    "generator": "Sketchfab-3.45.3",
    "version": "2.0"
  },
  "bufferViews": [
    {
      "buffer": 0,
      "byteLength": 107100,
      "byteOffset": 0,
      "name": "floatBufferViews",
      "target": 34963
    },
    {
      "buffer": 0,
      "byteLength": 273144,
      "byteOffset": 107100,
      "byteStride": 12,
      "name": "floatBufferViews",
      "target": 34962
    }
  ],
  "buffers": [
    {
      "byteLength": 380244,
      "uri": "scene.bin"
    }
  ],
  "extensionsRequired": [
    "KHR_materials_pbrSpecularGlossiness"
  ],
  "extensionsUsed": [
    "KHR_materials_pbrSpecularGlossiness"
  ],
  "materials": [
    {
      "doubleSided": true,
      "extensions": {
        "KHR_materials_pbrSpecularGlossiness": {
          "diffuseFactor": [
            0,
            0,
            0,
            1
          ],
          "glossinessFactor": 0,
          "specularFactor": [
            0,
            0,
            0
          ]
        }
      },
      "name": "Material.002"
    },
    {
      "doubleSided": true,
      "extensions": {
        "KHR_materials_pbrSpecularGlossiness": {
          "diffuseFactor": [
            0.90228009860000002,
            0.79109919939999995,
            0.3816947779,
            1
          ],
          "glossinessFactor": 0.55223882199999996,
          "specularFactor": [
            0,
            0,
            0
          ]
        }
      },
      "name": "Material"
    },
    {
      "doubleSided": true,
      "extensions": {
        "KHR_materials_pbrSpecularGlossiness": {
          "diffuseFactor": [
            0.16814380840000001,
            0,
            0,
            1
          ],
          "glossinessFactor": 0,
          "specularFactor": [
            0,
            0,
            0
          ]
        }
      },
      "name": "Material.005"
    }
  ],
  "meshes": [
    {
      "name": "Plane_0",
      "primitives": [
        {
          "attributes": {
            "NORMAL": 1,
            "POSITION": 0
          },
          "indices": 2,
          "material": 2,
          "mode": 4
        }
      ]
    },
    {
      "name": "Plane.001_0",
      "primitives": [
        {
          "attributes": {
            "NORMAL": 4,
            "POSITION": 3
          },
          "indices": 5,
          "material": 1,
          "mode": 4
        }
      ]
    },
    {
      "name": "Text_0",
      "primitives": [
        {
          "attributes": {
            "NORMAL": 7,
            "POSITION": 6
          },
          "indices": 8,
          "material": 0,
          "mode": 4
        }
      ]
    }
  ],
  "nodes": [
    {
      "children": [
        1
      ],
      "name": "RootNode (gltf orientation matrix)",
      "rotation": [
        -0.70710678118654746,
        -0,
        -0,
        0.70710678118654757
      ]
    },
    {
      "children": [
        2
      ],
      "name": "RootNode (model correction matrix)"
    },
    {
      "children": [
        3,
        5,
        7,
        9
      ],
      "name": "Root"
    },
    {
      "children": [
        4
      ],
      "matrix": [
        -0.29086000000000006,
        0.95517000000000007,
        -0.05519000000000001,
        0,
        -0.77110000000000001,
        -0.19988000000000003,
        0.60452000000000006,
        0,
        0.56639000000000006,
        0.21839000000000003,
        0.7946700000000001,
        0,
        1.7579100000000001,
        -0.76907000000000014,
        13.129099999999999,
        1
      ],
      "name": "Lamp"
    },
    {
      "name": "Lamp"
    },
    {
      "children": [
        6
      ],
      "matrix": [
        6.035260000000001,
        0,
        0,
        0,
        0,
        7.1409299999999991,
        0,
        0,
        0,
        0,
        6.035260000000001,
        0,
        0,
        0,
        0,
        1
      ],
      "name": "Plane"
    },
    {
      "mesh": 0,
      "name": "Plane_0"
    },
    {
      "children": [
        8
      ],
      "matrix": [
        0,
        0,
        -0.54898000000000002,
        0,
        0,
        0.54898000000000002,
        0,
        0,
        0.54898000000000002,
        0,
        0,
        0,
        0,
        0,
        -0,
        1
      ],
      "name": "Plane.001"
    },
    {
      "mesh": 1,
      "name": "Plane.001_0"
    },
    {
      "children": [
        10
      ],
      "matrix": [
        0.00015000000000000007,
        0.99878,
        -0.049450000000000008,
        0,
        -1,
        6.0000000000000022e-05,
        -0.0018300000000000005,
        0,
        -0.0018200000000000004,
        0.049450000000000008,
        0.99877000000000005,
        0,
        -4.4255199999999997,
        -5.6518499999999996,
        0.67351000000000005,
        1
      ],
      "name": "Text"
    },
    {
      "mesh": 2,
      "name": "Text_0"
    }
  ],
  "scene": 0,
  "scenes": [
    {
      "name": "OSG_Scene",
      "nodes": [
        0
      ]
    }
  ]
}

