{
    "asset" : {
        "generator" : "Khronos glTF Blender I/O v1.6.16",
        "version" : "2.0"
    },
    "scene" : 0,
    "scenes" : [
        {
            "name" : "Scene",
            "nodes" : [
                3
            ]
        }
    ],
    "nodes" : [
        {
            "mesh" : 0,
            "name" : "Object_3"
        },
        {
            "mesh" : 1,
            "name" : "Object_4"
        },
        {
            "children" : [
                0,
                1
            ],
            "name" : "880a70c191b04ba385b226753134b5a2.obj.cleaner.materialmerger.gle"
        },
        {
            "children" : [
                2
            ],
            "name" : "Sketchfab_model",
            "rotation" : [
                -0.7071068286895752,
                0,
                0,
                0.7071068286895752
            ]
        }
    ],
    "materials" : [
        {
            "doubleSided" : true,
            "name" : "initialShadingGroup",
            "pbrMetallicRoughness" : {
                "metallicFactor" : 0,
                "roughnessFactor" : 0.6000000238418579
            }
        }
    ],
    "meshes" : [
        {
            "name" : "Object_1",
            "primitives" : [
                {
                    "attributes" : {
                        "POSITION" : 0,
                        "NORMAL" : 1,
                        "TEXCOORD_0" : 2
                    },
                    "indices" : 3,
                    "material" : 0
                }
            ]
        },
        {
            "name" : "Object_2",
            "primitives" : [
                {
                    "attributes" : {
                        "POSITION" : 4,
                        "NORMAL" : 5,
                        "TEXCOORD_0" : 6
                    },
                    "indices" : 7,
                    "material" : 0
                }
            ]
        }
    ],
    "accessors" : [
        {
            "bufferView" : 0,
            "componentType" : 5126,
            "count" : 51,
            "max" : [
                22.360477447509766,
                26.02103614807129,
                5.742575168609619
            ],
            "min" : [
                -32.877376556396484,
                13.227229118347168,
                0.3202730119228363
            ],
            "type" : "VEC3"
        },
        {
            "bufferView" : 1,
            "componentType" : 5126,
            "count" : 51,
            "type" : "VEC3"
        },
        {
            "bufferView" : 2,
            "componentType" : 5126,
            "count" : 51,
            "type" : "VEC2"
        },
        {
            "bufferView" : 3,
            "componentType" : 5123,
            "count" : 63,
            "type" : "SCALAR"
        },
        {
            "bufferView" : 4,
            "componentType" : 5126,
            "count" : 1496,
            "max" : [
                23.72830581665039,
                26.02103614807129,
                33.059852600097656
            ],
            "min" : [
                -33.353702545166016,
                12.477863311767578,
                0.04946000128984451
            ],
            "type" : "VEC3"
        },
        {
            "bufferView" : 5,
            "componentType" : 5126,
            "count" : 1496,
            "type" : "VEC3"
        },
        {
            "bufferView" : 6,
            "componentType" : 5126,
            "count" : 1496,
            "type" : "VEC2"
        },
        {
            "bufferView" : 7,
            "componentType" : 5123,
            "count" : 3078,
            "type" : "SCALAR"
        }
    ],
    "bufferViews" : [
        {
            "buffer" : 0,
            "byteLength" : 612,
            "byteOffset" : 0
        },
        {
            "buffer" : 0,
            "byteLength" : 612,
            "byteOffset" : 612
        },
        {
            "buffer" : 0,
            "byteLength" : 408,
            "byteOffset" : 1224
        },
        {
            "buffer" : 0,
            "byteLength" : 126,
            "byteOffset" : 1632
        },
        {
            "buffer" : 0,
            "byteLength" : 17952,
            "byteOffset" : 1760
        },
        {
            "buffer" : 0,
            "byteLength" : 17952,
            "byteOffset" : 19712
        },
        {
            "buffer" : 0,
            "byteLength" : 11968,
            "byteOffset" : 37664
        },
        {
            "buffer" : 0,
            "byteLength" : 6156,
            "byteOffset" : 49632
        }
    ],
    "buffers" : [
        {
            "byteLength" : 55788,
            "uri" : "data:application/octet-stream;base64,"
        }
    ]
}
