{
    "asset" : {
        "generator" : "Khronos glTF Blender I/O v1.6.16",
        "version" : "2.0"
    },
    "scene" : 0,
    "scenes" : [
        {
            "name" : "Scene",
            "nodes" : [
                5
            ]
        }
    ],
    "nodes" : [
        {
            "mesh" : 0,
            "name" : "Object_2"
        },
        {
            "mesh" : 1,
            "name" : "Object_3"
        },
        {
            "mesh" : 2,
            "name" : "Object_4"
        },
        {
            "mesh" : 3,
            "name" : "Object_5"
        },
        {
            "children" : [
                0,
                1,
                2,
                3
            ],
            "name" : "880a70c191b04ba385b226753134b5a2.obj.cleaner.materialmerger.gle"
        },
        {
            "children" : [
                4
            ],
            "name" : "Sketchfab_model",
            "rotation" : [
                -0.7071068286895752,
                0,
                0,
                0.7071068286895752
            ]
        }
    ],
    "materials" : [
        {
            "doubleSided" : true,
            "name" : "aiStandardSurface1SG",
            "pbrMetallicRoughness" : {
                "metallicFactor" : 0,
                "roughnessFactor" : 0.6000000238418579
            }
        },
        {
            "doubleSided" : true,
            "name" : "initialShadingGroup",
            "pbrMetallicRoughness" : {
                "metallicFactor" : 0,
                "roughnessFactor" : 0.6000000238418579
            }
        },
        {
            "doubleSided" : true,
            "emissiveFactor" : [
                1,
                1,
                1
            ],
            "name" : "standardSurface1SG",
            "pbrMetallicRoughness" : {
                "metallicFactor" : 0,
                "roughnessFactor" : 0
            }
        }
    ],
    "meshes" : [
        {
            "name" : "Object_0",
            "primitives" : [
                {
                    "attributes" : {
                        "POSITION" : 0,
                        "NORMAL" : 1,
                        "TEXCOORD_0" : 2
                    },
                    "indices" : 3,
                    "material" : 0
                }
            ]
        },
        {
            "name" : "Object_1",
            "primitives" : [
                {
                    "attributes" : {
                        "POSITION" : 4,
                        "NORMAL" : 5,
                        "TEXCOORD_0" : 6
                    },
                    "indices" : 7,
                    "material" : 1
                }
            ]
        },
        {
            "name" : "Object_2",
            "primitives" : [
                {
                    "attributes" : {
                        "POSITION" : 8,
                        "NORMAL" : 9,
                        "TEXCOORD_0" : 10
                    },
                    "indices" : 11,
                    "material" : 1
                }
            ]
        },
        {
            "name" : "Object_3",
            "primitives" : [
                {
                    "attributes" : {
                        "POSITION" : 12,
                        "NORMAL" : 13,
                        "TEXCOORD_0" : 14
                    },
                    "indices" : 15,
                    "material" : 2
                }
            ]
        }
    ],
    "accessors" : [
        {
            "bufferView" : 0,
            "componentType" : 5126,
            "count" : 37,
            "max" : [
                22.76607322692871,
                22.802017211914062,
                0.3519670069217682
            ],
            "min" : [
                -33.340335845947266,
                -37.420555114746094,
                -3.8916800022125244
            ],
            "type" : "VEC3"
        },
        {
            "bufferView" : 1,
            "componentType" : 5126,
            "count" : 37,
            "type" : "VEC3"
        },
        {
            "bufferView" : 2,
            "componentType" : 5126,
            "count" : 37,
            "type" : "VEC2"
        },
        {
            "bufferView" : 3,
            "componentType" : 5123,
            "count" : 54,
            "type" : "SCALAR"
        },
        {
            "bufferView" : 4,
            "componentType" : 5126,
            "count" : 153,
            "max" : [
                22.360477447509766,
                26.02103614807129,
                5.742575168609619
            ],
            "min" : [
                -32.877376556396484,
                -3.4314370155334473,
                -3.390739917755127
            ],
            "type" : "VEC3"
        },
        {
            "bufferView" : 5,
            "componentType" : 5126,
            "count" : 153,
            "type" : "VEC3"
        },
        {
            "bufferView" : 6,
            "componentType" : 5126,
            "count" : 153,
            "type" : "VEC2"
        },
        {
            "bufferView" : 7,
            "componentType" : 5123,
            "count" : 183,
            "type" : "SCALAR"
        },
        {
            "bufferView" : 8,
            "componentType" : 5126,
            "count" : 6250,
            "max" : [
                24.27700424194336,
                26.02103614807129,
                33.095584869384766
            ],
            "min" : [
                -33.37479782104492,
                -38.183746337890625,
                -3.390739917755127
            ],
            "type" : "VEC3"
        },
        {
            "bufferView" : 9,
            "componentType" : 5126,
            "count" : 6250,
            "type" : "VEC3"
        },
        {
            "bufferView" : 10,
            "componentType" : 5126,
            "count" : 6250,
            "type" : "VEC2"
        },
        {
            "bufferView" : 11,
            "componentType" : 5123,
            "count" : 11262,
            "type" : "SCALAR"
        },
        {
            "bufferView" : 12,
            "componentType" : 5126,
            "count" : 248,
            "max" : [
                23.471527099609375,
                12.616628646850586,
                26.694433212280273
            ],
            "min" : [
                22.3206844329834,
                -35.17250061035156,
                5.913888931274414
            ],
            "type" : "VEC3"
        },
        {
            "bufferView" : 13,
            "componentType" : 5126,
            "count" : 248,
            "type" : "VEC3"
        },
        {
            "bufferView" : 14,
            "componentType" : 5126,
            "count" : 248,
            "type" : "VEC2"
        },
        {
            "bufferView" : 15,
            "componentType" : 5123,
            "count" : 312,
            "type" : "SCALAR"
        }
    ],
    "bufferViews" : [
        {
            "buffer" : 0,
            "byteLength" : 444,
            "byteOffset" : 0
        },
        {
            "buffer" : 0,
            "byteLength" : 444,
            "byteOffset" : 444
        },
        {
            "buffer" : 0,
            "byteLength" : 296,
            "byteOffset" : 888
        },
        {
            "buffer" : 0,
            "byteLength" : 108,
            "byteOffset" : 1184
        },
        {
            "buffer" : 0,
            "byteLength" : 1836,
            "byteOffset" : 1292
        },
        {
            "buffer" : 0,
            "byteLength" : 1836,
            "byteOffset" : 3128
        },
        {
            "buffer" : 0,
            "byteLength" : 1224,
            "byteOffset" : 4964
        },
        {
            "buffer" : 0,
            "byteLength" : 366,
            "byteOffset" : 6188
        },
        {
            "buffer" : 0,
            "byteLength" : 75000,
            "byteOffset" : 6556
        },
        {
            "buffer" : 0,
            "byteLength" : 75000,
            "byteOffset" : 81556
        },
        {
            "buffer" : 0,
            "byteLength" : 50000,
            "byteOffset" : 156556
        },
        {
            "buffer" : 0,
            "byteLength" : 22524,
            "byteOffset" : 206556
        },
        {
            "buffer" : 0,
            "byteLength" : 2976,
            "byteOffset" : 229080
        },
        {
            "buffer" : 0,
            "byteLength" : 2976,
            "byteOffset" : 232056
        },
        {
            "buffer" : 0,
            "byteLength" : 1984,
            "byteOffset" : 235032
        },
        {
            "buffer" : 0,
            "byteLength" : 624,
            "byteOffset" : 237016
        }
    ],
    "buffers" : [
        {
            "byteLength" : 237640,
            "uri" : "data:application/octet-stream;base64,"
        }
    ]
}
